<!DOCTYPE svg PUBLIC "-//W3C//DTD SVG 1.1//EN" "http://www.w3.org/Graphics/SVG/1.1/DTD/svg11.dtd">
<!-- Uploaded to: SVG Repo, www.svgrepo.com, Transformed by: SVG Repo Mixer Tools -->
<svg fill="#0078FF" height="800px" width="800px" version="1.1" id="Capa_1" xmlns="http://www.w3.org/2000/svg" xmlns:xlink="http://www.w3.org/1999/xlink" viewBox="0 0 489.2 489.2" xml:space="preserve">
<g id="SVGRepo_bgCarrier" stroke-width="0"/>
<g id="SVGRepo_tracerCarrier" stroke-linecap="round" stroke-linejoin="round"/>
<g id="SVGRepo_iconCarrier"> <g> <g> <path d="M285.7,215.75h191.2c6.8,0,12.3-5.5,12.3-12.3c0-112.2-91.2-203.4-203.4-203.4c-6.8,0-12.3,5.5-12.3,12.2v191.2 C273.5,210.35,278.9,215.75,285.7,215.75z M298,25.05c88.9,6,160.2,77.3,166.2,166.2H298V25.05z"/> <path d="M222.4,489.15c122.6,0,222.3-99.7,222.3-222.3c0-6.8-5.5-12.3-12.3-12.3H234.6V56.85c0-6.8-5.5-12.3-12.3-12.3 C99.7,44.55,0,144.25,0,266.85S99.8,489.15,222.4,489.15z M210.1,69.45v197.4c0,6.8,5.5,12.3,12.3,12.3h197.4 c-6.4,103.4-92.5,185.5-197.4,185.5c-109.1,0-197.8-88.7-197.8-197.8C24.6,161.95,106.7,75.75,210.1,69.45z"/> </g> </g> </g>
</svg>